<?xml version="1.0" encoding="UTF-8"?>
<svg id="Layer_1" data-name="Layer 1" xmlns="http://www.w3.org/2000/svg" xmlns:xlink="http://www.w3.org/1999/xlink" viewBox="306 355 469 371">
  <defs>
    <style>
      .cls-1 {
        fill: url(#linear-gradient-13);
      }

      .cls-2 {
        fill: url(#linear-gradient-2);
      }

      .cls-3 {
        fill: url(#linear-gradient-10);
      }

      .cls-4 {
        fill: url(#linear-gradient-12);
      }

      .cls-5 {
        fill: #fff;
      }

      .cls-6 {
        fill: url(#linear-gradient-4);
      }

      .cls-7 {
        fill: url(#radial-gradient);
      }

      .cls-8 {
        fill: url(#linear-gradient-3);
      }

      .cls-9 {
        fill: url(#linear-gradient-5);
      }

      .cls-10 {
        fill: url(#linear-gradient-8);
      }

      .cls-11 {
        fill: url(#linear-gradient-7);
      }

      .cls-12 {
        fill: url(#linear-gradient-9);
      }

      .cls-13 {
        fill: url(#linear-gradient-11);
      }

      .cls-14 {
        fill: url(#linear-gradient-6);
      }

      .cls-15 {
        fill: #fff;
      }

      .cls-16 {
        fill: url(#linear-gradient);
      }
    </style>
    <linearGradient id="linear-gradient" x1="694.98" y1="559.3" x2="708.7" y2="559.3" gradientUnits="userSpaceOnUse">
      <stop offset="0" stop-color="#e93e82"/>
      <stop offset=".03" stop-color="#e94378"/>
      <stop offset=".14" stop-color="#eb535e"/>
      <stop offset=".26" stop-color="#ec5e4b"/>
      <stop offset=".38" stop-color="#ec653f"/>
      <stop offset=".5" stop-color="#ed683c"/>
      <stop offset="1" stop-color="#e93e3a"/>
    </linearGradient>
    <linearGradient id="linear-gradient-2" x1="609.4" y1="660.68" x2="616.43" y2="660.68" gradientUnits="userSpaceOnUse">
      <stop offset="0" stop-color="#ff6544"/>
      <stop offset=".28" stop-color="#e93e82"/>
      <stop offset=".52" stop-color="#be31b7"/>
      <stop offset=".75" stop-color="#9824ea"/>
      <stop offset="1" stop-color="#6b20f6"/>
    </linearGradient>
    <linearGradient id="linear-gradient-3" x1="575.35" y1="658.65" x2="582.34" y2="658.65" xlink:href="#linear-gradient-2"/>
    <linearGradient id="linear-gradient-4" x1="618.61" y1="660.7" x2="625.72" y2="660.7" gradientTransform="translate(1282.12 37.75) rotate(89.93)" xlink:href="#linear-gradient-2"/>
    <linearGradient id="linear-gradient-5" x1="331.08" y1="685.45" x2="435.44" y2="685.45" xlink:href="#linear-gradient-2"/>
    <linearGradient id="linear-gradient-6" x1="646.64" y1="685.48" x2="750.78" y2="685.48" gradientTransform="translate(1.22 -1.24) rotate(.1)" xlink:href="#linear-gradient-2"/>
    <linearGradient id="linear-gradient-7" x1="523.87" y1="701.03" x2="530.89" y2="701.03" gradientTransform="translate(.81 -.61) rotate(.07)" xlink:href="#linear-gradient-2"/>
    <linearGradient id="linear-gradient-8" x1="514.87" y1="701.04" x2="521.81" y2="701.04" gradientTransform="translate(1218.76 181.86) rotate(89.93)" xlink:href="#linear-gradient-2"/>
    <radialGradient id="radial-gradient" cx="537.76" cy="685.86" fx="537.76" fy="685.86" r="96.22" gradientUnits="userSpaceOnUse">
      <stop offset="0" stop-color="#ff6544"/>
      <stop offset=".28" stop-color="#e93e82"/>
      <stop offset=".52" stop-color="#be31b7"/>
      <stop offset=".75" stop-color="#9824ea"/>
    </radialGradient>
    <linearGradient id="linear-gradient-9" x1="461.39" y1="406.16" x2="578.44" y2="406.16" gradientUnits="userSpaceOnUse">
      <stop offset="0" stop-color="#9824ea"/>
      <stop offset="1" stop-color="#1920ae"/>
    </linearGradient>
    <linearGradient id="linear-gradient-10" x1="502.83" y1="433.21" x2="589.79" y2="346.25" gradientUnits="userSpaceOnUse">
      <stop offset=".38" stop-color="#ff6544"/>
      <stop offset=".52" stop-color="#e93e82"/>
      <stop offset=".69" stop-color="#be31b7"/>
      <stop offset=".86" stop-color="#9824ea"/>
      <stop offset="1" stop-color="#6b20f6"/>
    </linearGradient>
    <linearGradient id="linear-gradient-11" x1="526.17" y1="460.36" x2="526.17" y2="526.24" gradientUnits="userSpaceOnUse">
      <stop offset="0" stop-color="#be31b7"/>
      <stop offset=".68" stop-color="#9824ea"/>
      <stop offset="1" stop-color="#6b20f6"/>
    </linearGradient>
    <linearGradient id="linear-gradient-12" x1="555.4" y1="446.18" x2="568.62" y2="459.41" gradientUnits="userSpaceOnUse">
      <stop offset="0" stop-color="#ff6544"/>
      <stop offset="1" stop-color="#e93e82"/>
    </linearGradient>
    <linearGradient id="linear-gradient-13" x1="514.34" y1="423.65" x2="514.34" y2="527.31" xlink:href="#linear-gradient-12"/>
  </defs>
  <g>
    <path class="cls-16" d="M694.98,571.35v-11.74c.01-1.19,1.54-2.06,2.34-2.74l11.38-9.61v11.84s-13.72,12.26-13.72,12.26Z"/>
    <g>
      <path class="cls-15" d="M551.88,631.92v-30.72c-.04-5.68-1.7-11.17-7.01-13.23-4.72-1.84-10.31-1.57-14.7,1.05-4.46,2.66-6.3,7.47-6.29,12.53l.04,30.4-12.32-.06v-79.96s12.24-.03,12.24-.03l.13,32.41c5.79-6.89,13.21-8.95,21.77-8.1,11.36,1.66,17.78,9.5,18.46,20.97l.05,34.75-12.38-.02Z"/>
      <polygon class="cls-15" points="479.38 602.67 504.15 631.86 488.66 631.97 465.42 604 465.15 631.93 452.83 632 452.83 551.92 465.18 551.93 465.3 602.21 486.47 577.38 501.25 577.31 479.38 602.67"/>
      <path class="cls-15" d="M650.65,653.1c-5.02,2.66-10.44,3.18-16.09,2.47l1.91-10.75c5.41.66,10.21-1.34,12.87-5.99l3.67-7.75-10.14-24.19-12.55-29.62,13.62.05,15.33,39.29,14.87-39.2,13.25-.05-26.25,63.69c-2.48,5.04-5.54,9.22-10.5,12.07Z"/>
      <path class="cls-15" d="M729.94,598.48l-.03,33.42-12.37.1.19-35.19c.05-9.51,7.58-16.76,16.42-19.21,6.51-1.81,13.03-1.66,19.65-.23l-3.95,10.51c-3.71-.54-7.14-.6-10.56.29-5.07,1.18-8.54,4.9-9.35,10.31Z"/>
      <rect class="cls-15" x="694.79" y="577.21" width="12.45" height="54.79"/>
      <path class="cls-15" d="M625.06,595.42c-.02-4.97-2.1-9.65-5.45-13.09-5.4-5.56-15.24-6.79-22.99-6.1-6.49.61-12.48,2.57-17.91,6.45l4.9,7.88c6.57-3.6,13.95-5.34,21.3-3.83,6.49,1.34,8.81,5.85,7.96,12.27l-15.76.11c-4.9.04-9.55,1.03-13.86,3.17-5.14,2.54-7.99,7.13-8.43,12.75-.62,7.86,3.71,14.49,11.45,16.9,4.37,1.37,8.71,1.42,13.17.81,5.56-.77,10.31-3.37,14.11-7.96l1.01,7.12h10.68s-.18-36.49-.18-36.49ZM612.92,612.86c-.04,2.94-1.22,5.42-3.82,7.18-7.53,5.09-20.07,4.7-21.78-2.44-.69-2.86.29-5.51,2.57-7.18,2.25-1.65,4.96-2.45,7.78-2.47l15.33-.11-.08,5.03Z"/>
      <polygon class="cls-15" points="363.56 631.83 350.99 631.98 350.94 567.74 326.26 567.73 326.21 556.41 388.87 556.36 388.82 567.73 363.63 567.77 363.56 631.83"/>
      <path class="cls-15" d="M440.29,595.42c-.02-4.97-2.04-9.7-5.43-13.09-7.28-7.3-21.71-7.42-31.59-4.41-3.5,1.01-6.6,2.51-9.66,4.58l4.81,8.08c6.73-3.64,14.2-5.1,21.62-3.78,6.28,1.55,8.84,5.73,7.99,12.18l-15.25.14c-4.63.04-9.06.9-13.2,2.74-5.72,2.55-9.11,7.34-9.52,13.54-.47,7.11,3.22,13.38,10.1,16.01,4.87,1.85,9.8,2.05,14.81,1.27,5.47-.85,10.11-3.34,13.81-7.93l.94,7.2,10.73-.04-.17-36.5ZM407.35,622.6c-2.95-1.02-4.83-3.4-4.91-6.28-.19-6.33,6.29-8.52,12.8-8.52h12.98s.02,5.42.02,5.42c.03,7.64-12.34,12.34-20.89,9.39Z"/>
    </g>
  </g>
  <path class="cls-5" d="M511.56,515.09c.04.83.04,1.45-.18,1.64-.26.21-.67.46-1.23.54l.27-2.04c.07-.55,1.12-.64,1.15-.13Z"/>
  <g>
    <circle class="cls-2" cx="612.91" cy="660.68" r="3.51"/>
    <circle class="cls-8" cx="578.85" cy="658.65" r="3.5"/>
    <circle class="cls-6" cx="622.17" cy="660.7" r="3.55" transform="translate(-39.27 1282.08) rotate(-89.93)"/>
    <rect class="cls-9" x="331.08" y="684.53" width="104.36" height="1.84"/>
    <rect class="cls-14" x="646.64" y="684.53" width="104.14" height="1.89" transform="translate(-1.21 1.24) rotate(-.1)"/>
    <circle class="cls-11" cx="527.38" cy="701.03" r="3.51" transform="translate(-.81 .61) rotate(-.07)"/>
    <circle class="cls-10" cx="518.34" cy="701.04" r="3.47" transform="translate(-183.32 1218.54) rotate(-89.93)"/>
    <path class="cls-7" d="M615.19,680.19c-.02,2.14-.61,4.85-3.17,4.86l-14.94.05c-1.23,0-3.26-1.23-3.16-2.43.21-2.48,0-4.32-.72-6.58-1.01-3.22-3.17-5.94-6.28-7.45-6.1-2.97-13.08-2.3-18.46,1.78l1.96,4.14c6.59-2.5,15.25-2.98,16.98,3.68.38,1.45.5,2.96.54,4.74-2.01,1.27-4.38,2.17-6.98,2.17l-50.33.03c-1.37,0-3.81-.89-3.82-2.25l-.16-13.93-2.84-.1c-1.07-.04-2.18-.05-3.09.58l-.15,13.04c-.02,1.69-1.87,2.64-3.5,2.64l-42.62-.05c-1.84,0-2.78-1.7-2.78-3.22l-.03-13.22-6.24.05-.05,23.7c0,3.36-1.93,5.99-5.31,6.53-1.58.25-3.16,0-4.75-.19l-1.09,5.38c5.33,1.73,11.39.71,14.79-3.63,2.31-2.95,2.81-6.69,2.59-10.37,1.27.37,2.07.85,3.2.85h43.38c2.59-.01,4.53-1.22,6.17-3.03,1.31,1.54,3.17,2.94,5.35,2.95l51.27.12c3.65,0,6.83-.92,9.79-2.71,1.71,1.69,3.93,2.67,6.34,2.65l16.37-.1c4.48-.03,7.78-3.97,7.8-8.25l.04-13.96-6,.11-.11,11.43Z"/>
  </g>
  <g>
    <path class="cls-12" d="M562.09,412.51h-3.5s-68.11-.02-68.11-.02c-10.03.06-19.95,2.11-29.09,6.08,1.26-2.02,2.66-4.12,4.19-6.26,1.91-2.67,3.81-5.11,5.67-7.33,2.06-2.23,5.54-5.42,10.64-7.77,1.8-.82,3.72-1.51,6.11-2.09,8.33-2.05,15.64-1.31,21.31-.87,5.41.42,13.28.87,23.27.87l45.85-.02-5.09,5.44c-3.26,3.74-6.12,7.68-8.57,11.97h-2.69Z"/>
    <path class="cls-3" d="M578.51,395.18h-56.08s-15.77-.91-15.77-.91c-12.07-.87-23.93,1.73-33.72,9.05,7.99-10.43,17.99-18.24,30.31-23.13,7.83-2.86,16.17-5.03,24.63-5.04l90.73-.07-38.06,39.57-24.5,26.08-.21.2s-.07-.09-.08-.23c.01-5.29.94-10.39,2.63-15.4,1.82-5.41,4.29-10.45,7.44-15.21,3.59-5.4,7.75-10.12,12.68-14.9Z"/>
    <path class="cls-13" d="M520,514.94c-4.31,5.08-10.37,9.9-17.19,11.3,3.95-2.35,7.32-5.43,10.34-9.04,5.45-6.49,9.48-13.99,11.87-22.14,1.69-5.76,2.66-11.58,2.68-17.59l.08-17.12c2.94,10.88,11.12,17.35,21.74,20.06l-23.63,27.58-5.89,6.94Z"/>
    <polygon class="cls-4" points="580.66 445.77 555.79 472.24 555.79 445.78 580.66 445.77"/>
    <path class="cls-1" d="M514.75,515.64c-3.79,4.85-8.32,9.19-13.89,11.66v-72.3c.24-2.21.75-4.51,2.36-6.15l24.58-25.2.02,42.48v11.21c-.23,13.98-4.4,27.2-13.07,38.3Z"/>
  </g>
</svg>