<?xml version="1.0" encoding="UTF-8"?>
<svg id="Layer_1" data-name="Layer 1" xmlns="http://www.w3.org/2000/svg" xmlns:xlink="http://www.w3.org/1999/xlink" viewBox="0 0 1920 1080">
  <defs>
    <style>
      .cls-1 {
        fill: url(#linear-gradient-13);
      }

      .cls-2 {
        fill: url(#linear-gradient-2);
      }

      .cls-3 {
        fill: url(#linear-gradient-10);
      }

      .cls-4 {
        fill: url(#linear-gradient-12);
      }

      .cls-5 {
        fill: #787878;
      }

      .cls-6 {
        fill: #fff;
      }

      .cls-7 {
        fill: url(#linear-gradient-4);
      }

      .cls-8 {
        fill: url(#radial-gradient);
      }

      .cls-9 {
        fill: url(#linear-gradient-3);
      }

      .cls-10 {
        fill: url(#linear-gradient-5);
      }

      .cls-11 {
        fill: url(#linear-gradient-8);
      }

      .cls-12 {
        fill: url(#linear-gradient-7);
      }

      .cls-13 {
        fill: url(#linear-gradient-9);
      }

      .cls-14 {
        fill: url(#linear-gradient-11);
      }

      .cls-15 {
        fill: url(#linear-gradient-6);
      }

      .cls-16 {
        fill: #000828;
      }

      .cls-17 {
        fill: url(#linear-gradient);
      }
    </style>
    <linearGradient id="linear-gradient" x1="1259.7" y1="577.33" x2="1286.24" y2="577.33" gradientUnits="userSpaceOnUse">
      <stop offset="0" stop-color="#e93e82"/>
      <stop offset=".03" stop-color="#e94378"/>
      <stop offset=".14" stop-color="#eb535e"/>
      <stop offset=".26" stop-color="#ec5e4b"/>
      <stop offset=".38" stop-color="#ec653f"/>
      <stop offset=".5" stop-color="#ed683c"/>
      <stop offset="1" stop-color="#e93e3a"/>
    </linearGradient>
    <linearGradient id="linear-gradient-2" x1="1094.21" y1="773.38" x2="1107.8" y2="773.38" gradientUnits="userSpaceOnUse">
      <stop offset="0" stop-color="#ff6544"/>
      <stop offset=".28" stop-color="#e93e82"/>
      <stop offset=".52" stop-color="#be31b7"/>
      <stop offset=".75" stop-color="#9824ea"/>
      <stop offset="1" stop-color="#6b20f6"/>
    </linearGradient>
    <linearGradient id="linear-gradient-3" x1="1028.36" y1="769.46" x2="1041.89" y2="769.46" xlink:href="#linear-gradient-2"/>
    <linearGradient id="linear-gradient-4" x1="1112.03" y1="773.41" x2="1125.77" y2="773.41" gradientTransform="translate(1890.98 -346.4) rotate(89.93)" xlink:href="#linear-gradient-2"/>
    <linearGradient id="linear-gradient-5" x1="555.97" y1="821.28" x2="757.79" y2="821.28" xlink:href="#linear-gradient-2"/>
    <linearGradient id="linear-gradient-6" x1="1166.22" y1="821.34" x2="1367.62" y2="821.34" gradientTransform="translate(1.46 -2.24) rotate(.1)" xlink:href="#linear-gradient-2"/>
    <linearGradient id="linear-gradient-7" x1="928.8" y1="851.41" x2="942.38" y2="851.41" gradientTransform="translate(.99 -1.08) rotate(.07)" xlink:href="#linear-gradient-2"/>
    <linearGradient id="linear-gradient-8" x1="911.4" y1="851.43" x2="924.83" y2="851.43" gradientTransform="translate(1768.44 -67.71) rotate(89.93)" xlink:href="#linear-gradient-2"/>
    <radialGradient id="radial-gradient" cx="955.66" cy="822.07" fx="955.66" fy="822.07" r="186.08" gradientUnits="userSpaceOnUse">
      <stop offset="0" stop-color="#ff6544"/>
      <stop offset=".28" stop-color="#e93e82"/>
      <stop offset=".52" stop-color="#be31b7"/>
      <stop offset=".75" stop-color="#9824ea"/>
    </radialGradient>
    <linearGradient id="linear-gradient-9" x1="807.97" y1="281.18" x2="1034.33" y2="281.18" gradientUnits="userSpaceOnUse">
      <stop offset="0" stop-color="#9824ea"/>
      <stop offset="1" stop-color="#1920ae"/>
    </linearGradient>
    <linearGradient id="linear-gradient-10" x1="888.12" y1="333.49" x2="1056.29" y2="165.32" gradientUnits="userSpaceOnUse">
      <stop offset=".38" stop-color="#ff6544"/>
      <stop offset=".52" stop-color="#e93e82"/>
      <stop offset=".69" stop-color="#be31b7"/>
      <stop offset=".86" stop-color="#9824ea"/>
      <stop offset="1" stop-color="#6b20f6"/>
    </linearGradient>
    <linearGradient id="linear-gradient-11" x1="933.25" y1="385.99" x2="933.25" y2="513.39" gradientUnits="userSpaceOnUse">
      <stop offset="0" stop-color="#be31b7"/>
      <stop offset=".68" stop-color="#9824ea"/>
      <stop offset="1" stop-color="#6b20f6"/>
    </linearGradient>
    <linearGradient id="linear-gradient-12" x1="989.77" y1="358.57" x2="1015.36" y2="384.15" gradientUnits="userSpaceOnUse">
      <stop offset="0" stop-color="#ff6544"/>
      <stop offset="1" stop-color="#e93e82"/>
    </linearGradient>
    <linearGradient id="linear-gradient-13" x1="910.38" y1="315" x2="910.38" y2="515.45" xlink:href="#linear-gradient-12"/>
  </defs>
  <rect class="cls-16" x="-7.84" y="-149.94" width="1935.68" height="1379.89"/>
  <g>
    <path class="cls-17" d="M1259.7,600.63l.02-22.71c0-2.3,2.96-3.99,4.51-5.3l22.01-18.59-.02,22.89-26.52,23.7Z"/>
    <g>
      <path class="cls-6" d="M982.98,717.76v-59.4c-.07-10.98-3.3-21.6-13.55-25.58-9.13-3.55-19.94-3.04-28.42,2.03-8.62,5.15-12.17,14.45-12.16,24.24l.07,58.8-23.82-.11v-154.63s23.68-.07,23.68-.07l.25,62.68c11.19-13.33,25.54-17.31,42.1-15.67,21.96,3.22,34.38,18.36,35.7,40.56l.1,67.2-23.95-.03Z"/>
      <polygon class="cls-6" points="842.77 661.19 890.66 717.64 860.71 717.86 815.77 663.77 815.26 717.79 791.42 717.92 791.43 563.06 815.31 563.06 815.55 660.3 856.48 612.28 885.07 612.16 842.77 661.19"/>
      <path class="cls-6" d="M1173.98,758.71c-9.71,5.14-20.18,6.15-31.11,4.77l3.69-20.79c10.47,1.28,19.74-2.59,24.89-11.59l7.09-14.98-19.62-46.79-24.28-57.28,26.34.09,29.65,75.98,28.76-75.81,25.63-.11-50.76,123.16c-4.79,9.74-10.72,17.82-20.3,23.34Z"/>
      <path class="cls-6" d="M1327.31,653.09l-.07,64.62-23.92.19.36-68.05c.1-18.39,14.66-32.41,31.76-37.15,12.6-3.49,25.19-3.22,38-.45l-7.63,20.32c-7.18-1.05-13.81-1.16-20.42.57-9.8,2.28-16.52,9.49-18.08,19.94Z"/>
      <rect class="cls-6" x="1259.34" y="611.97" width="24.08" height="105.96"/>
      <path class="cls-6" d="M1124.5,647.17c-.05-9.61-4.06-18.66-10.53-25.32-10.45-10.75-29.48-13.13-44.45-11.79-12.56,1.17-24.14,4.96-34.63,12.48l9.48,15.25c12.7-6.96,26.97-10.33,41.19-7.4,12.56,2.58,17.04,11.31,15.39,23.72l-30.48.21c-9.48.07-18.46,2-26.8,6.13-9.94,4.92-15.45,13.78-16.31,24.65-1.19,15.21,7.17,28.02,22.14,32.69,8.45,2.64,16.84,2.75,25.47,1.57,10.75-1.48,19.94-6.51,27.28-15.39l1.95,13.77,20.66.03-.35-70.58ZM1101.02,680.9c-.09,5.69-2.36,10.47-7.39,13.88-14.56,9.84-38.8,9.08-42.13-4.73-1.33-5.53.56-10.65,4.97-13.89,4.35-3.19,9.6-4.74,15.04-4.78l29.66-.21-.15,9.72Z"/>
      <polygon class="cls-6" points="618.79 717.58 594.47 717.87 594.39 593.65 546.66 593.63 546.56 571.73 667.73 571.64 667.63 593.63 618.92 593.7 618.79 717.58"/>
      <path class="cls-6" d="M767.17,647.18c-.04-9.6-3.94-18.76-10.5-25.32-14.08-14.11-41.99-14.35-61.09-8.52-6.78,1.95-12.77,4.86-18.67,8.87l9.29,15.63c13.02-7.05,27.47-9.87,41.81-7.3,12.14,2.99,17.1,11.09,15.44,23.55l-29.49.28c-8.96.08-17.53,1.74-25.52,5.31-11.05,4.93-17.61,14.2-18.41,26.18-.92,13.74,6.22,25.88,19.54,30.96,9.42,3.59,18.94,3.96,28.64,2.45,10.58-1.65,19.56-6.45,26.71-15.34l1.81,13.92,20.75-.08-.32-70.58ZM703.48,699.73c-5.7-1.97-9.34-6.58-9.5-12.15-.37-12.25,12.17-16.48,24.75-16.48h25.1s.04,10.47.04,10.47c.06,14.78-23.86,23.86-40.39,18.15Z"/>
    </g>
    <path class="cls-5" d="M905.01,491.83c.08,1.6.08,2.81-.36,3.17-.5.41-1.29.9-2.38,1.04l.52-3.95c.14-1.06,2.17-1.25,2.22-.26Z"/>
    <g>
      <circle class="cls-2" cx="1101.01" cy="773.38" r="6.79"/>
      <circle class="cls-9" cx="1035.12" cy="769.46" r="6.76"/>
      <circle class="cls-7" cx="1118.9" cy="773.41" r="6.87" transform="translate(344.16 1891.39) rotate(-89.93)"/>
      <rect class="cls-10" x="555.97" y="819.49" width="201.82" height="3.56"/>
      <rect class="cls-15" x="1166.23" y="819.51" width="201.39" height="3.65" transform="translate(-1.45 2.25) rotate(-.1)"/>
      <circle class="cls-12" cx="935.59" cy="851.41" r="6.79" transform="translate(-.98 1.08) rotate(-.07)"/>
      <circle class="cls-11" cx="918.12" cy="851.43" r="6.71" transform="translate(65.59 1768.52) rotate(-89.93)"/>
      <path class="cls-8" d="M1105.4,811.1c-.04,4.14-1.17,9.37-6.12,9.39l-28.89.1c-2.38,0-6.31-2.39-6.12-4.71.41-4.79,0-8.36-1.38-12.73-1.96-6.22-6.13-11.49-12.15-14.41-11.8-5.74-25.29-4.45-35.69,3.44l3.8,8.01c12.74-4.84,29.49-5.76,32.84,7.11.73,2.81.96,5.73,1.05,9.16-3.89,2.45-8.47,4.19-13.5,4.19l-97.33.05c-2.64,0-7.37-1.73-7.4-4.35l-.3-26.95-5.49-.18c-2.07-.07-4.22-.1-5.97,1.12l-.28,25.22c-.04,3.26-3.61,5.11-6.77,5.11l-82.42-.09c-3.56,0-5.37-3.3-5.38-6.23l-.05-25.57-12.08.11-.09,45.84c-.01,6.51-3.73,11.59-10.28,12.63-3.06.48-6.11-.02-9.18-.37l-2.12,10.4c10.31,3.35,22.02,1.38,28.59-7.01,4.46-5.7,5.43-12.94,5.01-20.05,2.46.71,4.01,1.64,6.19,1.64l83.89-.02c5.01,0,8.75-2.33,11.92-5.83,2.53,2.97,6.12,5.69,10.34,5.7l99.16.22c7.05.02,13.22-1.78,18.93-5.23,3.3,3.28,7.61,5.16,12.27,5.13l31.65-.2c8.67-.06,15.05-7.68,15.08-15.96l.08-26.99-11.61.22-.21,22.1Z"/>
    </g>
    <g>
      <path class="cls-13" d="M1002.71,293.46h-6.77s-131.71-.03-131.71-.03c-19.39.12-38.57,4.08-56.26,11.75,2.45-3.91,5.14-7.96,8.11-12.11,3.69-5.16,7.37-9.88,10.97-14.17,3.98-4.31,10.7-10.49,20.58-15.02,3.48-1.59,7.2-2.91,11.81-4.05,16.1-3.97,30.25-2.53,41.21-1.68,10.46.81,25.68,1.68,45,1.69l88.68-.03-9.85,10.51c-6.3,7.24-11.83,14.85-16.57,23.14h-5.2Z"/>
      <path class="cls-3" d="M1034.48,259.94h-108.46s-30.49-1.75-30.49-1.75c-23.34-1.68-46.28,3.35-65.21,17.5,15.44-20.17,34.8-35.28,58.62-44.74,15.14-5.53,31.26-9.73,47.63-9.75l175.47-.14-73.6,76.53-47.38,50.44-.4.38c-.09.09-.13-.17-.15-.45.02-10.23,1.83-20.09,5.08-29.79,3.51-10.46,8.3-20.21,14.39-29.42,6.95-10.45,15-19.57,24.52-28.82Z"/>
      <path class="cls-14" d="M921.32,491.54c-8.34,9.83-20.05,19.15-33.24,21.85,7.64-4.55,14.15-10.5,19.99-17.47,10.53-12.55,18.33-27.05,22.95-42.81,3.26-11.13,5.14-22.39,5.19-34.02l.15-33.1c5.69,21.04,21.5,33.55,42.05,38.79l-45.7,53.33-11.39,13.43Z"/>
      <polygon class="cls-4" points="1038.63 357.78 990.54 408.97 990.54 357.8 1038.63 357.78"/>
      <path class="cls-1" d="M911.18,492.89c-7.33,9.38-16.1,17.77-26.87,22.56v-139.82c.46-4.28,1.45-8.72,4.56-11.9l47.54-48.73.04,82.15v21.68c-.45,27.03-8.5,52.61-25.27,74.07Z"/>
    </g>
  </g>
</svg>