<svg width="24" height="24" viewBox="0 0 24 24" fill="none" xmlns="http://www.w3.org/2000/svg">
<path d="M13.067 10.7208C13.067 11.4076 12.6477 11.8029 11.909 11.8029H10.9387V9.63866H11.913C12.6477 9.63866 13.067 10.03 13.067 10.7208ZM14.9637 13.2204C14.9637 13.5519 15.2512 13.7675 15.7024 13.7675C16.2774 13.7675 16.7087 13.4041 16.7087 12.893V12.5855L15.7703 12.6454C15.2392 12.6814 14.9637 12.877 14.9637 13.2204ZM24 5.15446V19.21C24 20.2682 23.1415 21.1267 22.0833 21.1267H2.91667C1.85851 21.1267 1 20.2682 1 19.21V5.15446C1 4.0963 1.85851 3.23779 2.91667 3.23779H22.0833C23.1415 3.23779 24 4.0963 24 5.15446ZM6.10313 9.87425C6.43854 9.9022 6.77396 9.70654 6.98559 9.45897C7.19323 9.20342 7.32899 8.86002 7.29306 8.51262C6.99757 8.5246 6.63021 8.70828 6.41858 8.96383C6.22691 9.18345 6.06319 9.53883 6.10313 9.87425ZM8.52292 12.8491C8.51493 12.8411 7.74028 12.5456 7.73229 11.6512C7.72431 10.9045 8.34323 10.5451 8.37118 10.5251C8.01979 10.006 7.47674 9.95012 7.28906 9.93814C6.80191 9.91019 6.38663 10.2137 6.15504 10.2137C5.91944 10.2137 5.56806 9.95012 5.18472 9.95811C4.68559 9.96609 4.2184 10.2496 3.96684 10.7008C3.44375 11.6032 3.83108 12.9369 4.33819 13.6716C4.58576 14.035 4.88524 14.4343 5.27656 14.4183C5.64792 14.4024 5.79566 14.1788 6.24288 14.1788C6.6941 14.1788 6.82188 14.4183 7.21319 14.4144C7.62049 14.4064 7.87205 14.051 8.12361 13.6876C8.39913 13.2723 8.51493 12.873 8.52292 12.8491ZM13.9295 10.7168C13.9295 9.65463 13.1908 8.9279 12.1366 8.9279H10.0922V14.3744H10.9387V12.5137H12.1087C13.1788 12.5137 13.9295 11.7789 13.9295 10.7168ZM17.5233 11.6631C17.5233 10.8765 16.8924 10.3694 15.926 10.3694C15.0276 10.3694 14.3648 10.8845 14.3408 11.5873H15.1035C15.1674 11.2519 15.4788 11.0322 15.9021 11.0322C16.4212 11.0322 16.7087 11.2718 16.7087 11.719V12.0185L15.6545 12.0824C14.6722 12.1423 14.1411 12.5456 14.1411 13.2444C14.1411 13.9512 14.6882 14.4183 15.4748 14.4183C16.0059 14.4183 16.497 14.1508 16.7207 13.7236H16.7366V14.3784H17.5193V11.6631H17.5233ZM21.6042 10.4213H20.7457L19.7514 13.6397H19.7354L18.7411 10.4213H17.8507L19.2842 14.3864L19.2083 14.626C19.0806 15.0333 18.8689 15.193 18.4936 15.193C18.4257 15.193 18.2979 15.185 18.246 15.181V15.8359C18.2939 15.8519 18.5056 15.8558 18.5694 15.8558C19.396 15.8558 19.7833 15.5404 20.1227 14.5861L21.6042 10.4213Z" fill="black"/>
</svg>
