<svg width="24" height="24" viewBox="0 0 24 24" fill="none" xmlns="http://www.w3.org/2000/svg">
<g clip-path="url(#clip0_132_4124)">
<path d="M22.0785 4.32031H1.60134C0.893847 4.32031 0.320312 4.89385 0.320312 5.60134V18.3988C0.320312 19.1063 0.893847 19.6798 1.60134 19.6798H22.0785C22.786 19.6798 23.3595 19.1063 23.3595 18.3988V5.60134C23.3595 4.89385 22.786 4.32031 22.0785 4.32031Z" fill="#0873B9"/>
<path d="M0.339844 8.40883C8.01916 8.40669 15.6989 8.40669 23.3791 8.40883V15.5371C15.6998 15.5392 8.02001 15.5392 0.339844 15.5371V8.40883ZM4.57171 8.968C4.56146 10.9376 4.57811 12.9078 4.57171 14.878C4.71567 14.9002 4.86097 14.9126 5.00662 14.9152C6.2159 14.9152 7.42583 14.9152 8.63448 14.9152C8.80229 14.9152 8.96819 14.8915 9.13472 14.8774C9.13856 14.1728 9.13472 13.4682 9.13792 12.7637C9.17169 12.4099 9.18388 12.0544 9.17443 11.6991C9.46074 11.9361 9.69837 12.2212 9.96226 12.4799C10.6028 13.1268 11.2343 13.7872 11.8838 14.4309C12.0046 14.5732 12.1403 14.702 12.2886 14.8152C12.3765 14.8233 12.4649 14.8263 12.5531 14.8242C14.6483 14.8152 16.7434 14.8338 18.8385 14.8152C18.7797 14.7308 18.7104 14.6541 18.6322 14.5872C18.0173 14.0825 17.4191 13.5579 16.81 13.05C16.2931 12.6381 15.8005 12.1994 15.2945 11.7754C15.2478 11.7158 15.1325 11.6556 15.1869 11.5698C15.4149 11.3949 15.6628 11.2437 15.8838 11.0573C16.4263 10.609 17.0213 10.2247 17.5671 9.78144C17.9082 9.54847 18.2358 9.29635 18.5483 9.02628C16.6076 9.00387 14.6662 9.02628 12.7254 9.01603C12.6241 9.01086 12.5226 9.01818 12.4231 9.03781C11.5591 9.67192 10.7315 10.3528 9.87195 10.9933C9.66569 11.1731 9.44359 11.3339 9.20838 11.4737C9.17379 10.641 9.20838 9.8013 9.19044 8.96608C7.64809 8.96928 6.10958 8.96351 4.57171 8.96608V8.968Z" fill="#0873B9"/>
<path d="M11.8398 17.579C11.963 17.4216 12.1259 17.2999 12.3119 17.2266C12.4978 17.1533 12.6999 17.131 12.8973 17.162C13.0532 17.1549 13.2077 17.1932 13.3422 17.2722C13.4767 17.3512 13.5854 17.4676 13.6551 17.6072C13.0504 17.6129 12.4432 17.6251 11.8398 17.579Z" fill="#0873B9"/>
<path d="M2.88631 4.97617C3.17198 4.97617 3.45829 4.97105 3.74396 4.97937C3.59792 5.40147 3.38399 5.79602 3.22066 6.21172C4.95005 6.23285 6.67623 6.21172 8.40305 6.22261C8.55103 6.22435 8.699 6.21794 8.84628 6.20339C8.83565 6.00101 8.83886 5.79813 8.85589 5.59618C9.07238 5.59618 9.28888 5.59618 9.50601 5.59618C9.52138 5.78834 9.52394 5.98369 9.52138 6.17777C9.61554 6.17777 9.71354 6.17137 9.80641 6.16624C9.82114 5.98049 9.83011 5.79538 9.84356 5.60964C10.0394 5.59698 10.2358 5.59698 10.4316 5.60964C10.4348 6.1118 10.4386 6.61396 10.4316 7.11548C8.16222 7.13277 5.89288 7.11548 3.62354 7.12317C3.41281 7.12317 3.20273 7.12317 2.992 7.11548C2.75052 6.82277 2.51161 6.52877 2.26758 6.23862C2.45973 5.81012 2.67366 5.39314 2.88631 4.97617Z" fill="#FDFEFD"/>
<path d="M18.5689 4.93082C19.4016 4.93082 20.2381 4.91801 21.0727 4.93787C21.1137 5.03074 21.156 5.12362 21.1963 5.21649C20.6199 5.24019 20.0434 5.26197 19.4669 5.26517C19.4618 5.36445 19.4567 5.46501 19.4522 5.56493C20.1376 5.58735 20.8248 5.53995 21.5089 5.59375C21.6516 5.79698 21.7728 6.01442 21.8708 6.24259C21.7318 6.42322 21.5717 6.58783 21.4167 6.755C21.3526 6.84852 21.2322 6.82994 21.1342 6.83443C20.1734 6.83443 19.2127 6.83443 18.2519 6.83443C18.0072 6.84467 17.8259 6.65572 17.6159 6.56349C17.5947 6.9478 17.6095 7.33531 17.605 7.7209C16.2727 7.73114 14.9392 7.73627 13.6069 7.7209C13.6069 6.99648 13.6037 6.27142 13.6069 5.547C14.5561 5.547 15.506 5.5502 16.4552 5.547C16.4604 5.8032 16.4591 6.06261 16.4552 6.32138C15.8295 6.33483 15.2024 6.32138 14.576 6.32842C14.5504 6.58773 14.5478 6.8488 14.5683 7.10857C15.303 7.12906 16.0383 7.11881 16.7723 7.11305C16.7845 6.59231 16.7723 6.07094 16.7755 5.5502C17.2239 5.5502 17.6722 5.5502 18.1161 5.5502C18.3223 5.76221 18.4882 6.00688 18.6874 6.22466C18.7412 6.30857 18.8514 6.28102 18.9366 6.28871C19.6098 6.28551 20.2817 6.28871 20.9574 6.28871C20.9151 6.17214 20.869 6.05813 20.8197 5.94411C20.2304 5.94411 19.6412 5.94411 19.0519 5.94411C18.8495 5.97294 18.7713 5.75196 18.6676 5.62706C18.4966 5.42978 18.5709 5.16333 18.5689 4.93082Z" fill="#FDFEFD"/>
<path d="M4.10534 5.01018C4.31132 4.98554 4.51925 4.98168 4.726 4.99865C4.726 5.09345 4.72216 5.19081 4.71767 5.28368C4.51079 5.28752 4.3039 5.28752 4.09766 5.28368C4.09766 5.19145 4.10022 5.10114 4.10534 5.01018Z" fill="#FDFEFD"/>
<path d="M5.13443 5.00308C5.33736 4.98318 5.5417 4.9821 5.74483 4.99988C5.74483 5.09468 5.74483 5.19203 5.74483 5.28427C5.54115 5.28427 5.33619 5.28427 5.1325 5.28427C5.1293 5.18947 5.13123 5.0966 5.13443 5.00308Z" fill="#FDFEFD"/>
<path d="M9.79916 5.00206C10.0015 4.98239 10.2053 4.98239 10.4076 5.00206C10.4076 5.09493 10.4076 5.18781 10.4076 5.28004C10.204 5.28581 9.99965 5.28581 9.79532 5.28004C9.79404 5.18973 9.79596 5.09878 9.79916 5.00206Z" fill="#FDFEFD"/>
<path d="M11.4062 5.89295C11.8149 5.87309 12.2235 5.8859 12.6322 5.8859C12.6668 6.19975 12.6565 6.51617 12.6616 6.8313C12.2447 6.83578 11.829 6.84219 11.4107 6.82746C11.4088 6.51296 11.4101 6.20424 11.4062 5.89295Z" fill="#FDFEFD"/>
<path d="M18.1153 7.39258C18.3075 7.39258 18.506 7.39258 18.7014 7.40283C18.7014 7.49634 18.7014 7.58921 18.7014 7.68273C18.4938 7.69042 18.2863 7.69234 18.0801 7.68273C18.091 7.58537 18.1031 7.4893 18.1153 7.39258Z" fill="#FDFEFD"/>
<path d="M19.0451 7.39963C19.2495 7.38893 19.4543 7.38893 19.6587 7.39963C19.6587 7.49634 19.6587 7.59178 19.6587 7.68978C19.4557 7.68978 19.2527 7.68978 19.0503 7.6853C19.0451 7.58922 19.0445 7.49442 19.0451 7.39963Z" fill="#FDFEFD"/>
<path d="M0.339844 8.2373C8.01916 8.23944 15.6989 8.23944 23.3791 8.2373V8.4064C15.6998 8.40256 8.02001 8.40256 0.339844 8.4064V8.2373Z" fill="#FDFEFD"/>
<path d="M0.339844 15.5352C8.01916 15.539 15.6989 15.539 23.3791 15.5352V15.7055C15.6998 15.7034 8.02001 15.7034 0.339844 15.7055V15.5352Z" fill="#FDFEFD"/>
<path d="M19.7704 16.2139C20.1771 16.2139 20.5839 16.2139 20.9912 16.2139C20.9852 16.3898 20.9884 16.566 21.0008 16.7417C21.2615 16.7372 21.5229 16.7417 21.7836 16.7417C21.7868 16.8698 21.7835 16.9979 21.7746 17.126C21.5056 17.126 21.2372 17.126 20.9694 17.1311C20.9694 17.5596 20.9662 17.9887 20.9694 18.4172C21.227 18.4092 21.4848 18.4141 21.7419 18.432C21.7398 18.5831 21.7398 18.7349 21.7419 18.8874C21.3852 18.9143 21.0271 18.8938 20.6703 18.9015C20.4207 18.929 20.1688 18.8751 19.9523 18.7477C19.8962 18.7039 19.8508 18.648 19.8195 18.5841C19.7882 18.5202 19.7719 18.45 19.7717 18.3788C19.7499 17.9772 19.7909 17.5724 19.7474 17.1714C19.5482 17.1766 19.3489 17.1785 19.1504 17.1714C19.1504 17.028 19.1515 16.8849 19.1536 16.7423C19.3541 16.7372 19.5552 16.7391 19.7563 16.7365C19.7659 16.5636 19.7659 16.3887 19.7704 16.2139Z" fill="#FDFEFD"/>
<path d="M3.44684 17.0426C3.80672 16.8414 4.20569 16.7202 4.61661 16.687C5.02754 16.6539 5.44079 16.7096 5.82826 16.8504C6.12866 16.9747 6.45917 17.202 6.47454 17.5511C6.48863 17.9803 6.47454 18.41 6.48222 18.8398C6.08254 18.8655 5.68158 18.8514 5.28126 18.8475C5.27101 18.4683 5.28831 18.0885 5.2755 17.71C5.27461 17.6244 5.25025 17.5408 5.20507 17.4682C5.15989 17.3955 5.09563 17.3367 5.0193 17.2981C4.69599 17.1568 4.33347 17.1331 3.99447 17.2309C3.7799 17.2911 3.52178 17.4115 3.48655 17.651C3.46861 18.0558 3.48655 18.4619 3.48014 18.868C3.08367 18.8719 2.68847 18.868 2.29199 18.868C2.26637 18.1859 2.28175 17.5012 2.28367 16.8184C2.66285 16.8184 3.04139 16.8126 3.41993 16.8184C3.4289 16.8946 3.43851 16.9683 3.44684 17.0426Z" fill="#FDFEFD"/>
<path d="M10.7947 17.2343C11.234 16.9018 11.7659 16.7144 12.3166 16.6982C12.9726 16.6225 13.6372 16.7105 14.251 16.9544C14.451 17.0357 14.6228 17.1739 14.745 17.3518C14.8673 17.5298 14.9347 17.7397 14.9389 17.9556C13.8974 17.9825 12.854 17.9357 11.8138 17.9786C11.8274 18.0554 11.8573 18.1285 11.9015 18.1928C11.9457 18.2571 12.0032 18.3112 12.07 18.3514C12.3475 18.4729 12.6527 18.5172 12.9533 18.4795C13.2428 18.4795 13.4657 18.2335 13.7597 18.2572C14.1312 18.2624 14.5033 18.2496 14.8748 18.27C14.5269 18.6375 14.0568 18.8653 13.5528 18.9106C12.9404 19.0028 12.3167 18.9881 11.7094 18.867C11.5038 18.8399 11.3057 18.7721 11.1265 18.6676C10.9474 18.5632 10.7909 18.4241 10.666 18.2585C10.5633 18.0999 10.5199 17.9102 10.5433 17.7228C10.5667 17.5353 10.6555 17.3621 10.7941 17.2337M11.8388 17.5789C12.4421 17.6244 13.0493 17.6129 13.654 17.6071C13.5843 17.4675 13.4757 17.3512 13.3412 17.2722C13.2067 17.1931 13.0521 17.1549 12.8963 17.162C12.6989 17.1313 12.497 17.1539 12.3113 17.2275C12.1256 17.301 11.9629 17.4228 11.8401 17.5802L11.8388 17.5789Z" fill="#FDFEFD"/>
<path d="M4.57155 8.96484C6.10878 8.96484 7.64601 8.96805 9.18324 8.96484C9.20245 9.79751 9.16659 10.6372 9.20117 11.4725C9.43638 11.3326 9.65848 11.1719 9.86475 10.9921C10.7243 10.3516 11.5519 9.67069 12.4159 9.03659C12.5154 9.01694 12.6169 9.00962 12.7182 9.01481C14.659 9.02313 16.601 9.00264 18.5411 9.02505C18.2299 9.29344 17.9038 9.54407 17.5643 9.77574C17.0186 10.2203 16.4236 10.6026 15.8811 11.0516C15.6601 11.2367 15.4122 11.3879 15.1842 11.564C15.1298 11.6499 15.2483 11.7101 15.2918 11.7697C15.7978 12.193 16.2904 12.6324 16.8073 13.0443C17.4164 13.5567 18.0146 14.0793 18.6295 14.5815C18.7077 14.6484 18.777 14.725 18.8358 14.8095C16.7406 14.8281 14.6455 14.8095 12.5504 14.8185C12.4621 14.8206 12.3738 14.8176 12.2859 14.8095C12.1376 14.6963 12.0018 14.5675 11.8811 14.4252C11.2348 13.7847 10.6058 13.1211 9.95954 12.4742C9.69565 12.218 9.45802 11.9304 9.17171 11.6934C9.18116 12.0487 9.16897 12.4042 9.1352 12.758C9.1288 13.4625 9.1352 14.1671 9.132 14.8716C8.96547 14.8857 8.79957 14.9088 8.63176 14.9094C7.42311 14.9094 6.21318 14.9094 5.00389 14.9094C4.85825 14.9069 4.71295 14.8945 4.56899 14.8723C4.57796 12.9046 4.56194 10.9344 4.57155 8.96484Z" fill="#FAE80C"/>
</g>
<defs>
<clipPath id="clip0_132_4124">
<rect width="23.6797" height="16" fill="white" transform="translate(0 4)"/>
</clipPath>
</defs>
</svg>
