<svg width="24" height="24" viewBox="0 0 24 24" fill="none" xmlns="http://www.w3.org/2000/svg">
<g clip-path="url(#clip0_132_4149)">
<path d="M22.0803 4.31934H1.60031C0.893388 4.31934 0.320312 4.89241 0.320312 5.59934V18.3993C0.320312 19.1063 0.893388 19.6793 1.60031 19.6793H22.0803C22.7872 19.6793 23.3603 19.1063 23.3603 18.3993V5.59934C23.3603 4.89241 22.7872 4.31934 22.0803 4.31934Z" fill="#093A5A"/>
<path d="M14.2937 7.99609H9.39258V16.0025H14.2937V7.99609Z" fill="#F26122"/>
<path d="M9.92142 11.9994C9.91743 11.2303 10.0882 10.4703 10.4208 9.77684C10.7534 9.08336 11.2391 8.47449 11.8414 7.99617C11.0902 7.40527 10.1878 7.0377 9.23748 6.93547C8.28716 6.83324 7.32726 7.00048 6.46751 7.41808C5.60776 7.83567 4.88287 8.48676 4.37572 9.29691C3.86856 10.1071 3.59961 11.0436 3.59961 11.9994C3.59961 12.9552 3.86856 13.8917 4.37572 14.7018C4.88287 15.512 5.60776 16.1631 6.46751 16.5807C7.32726 16.9983 8.28716 17.1655 9.23748 17.0633C10.1878 16.961 11.0902 16.5935 11.8414 16.0026C11.2391 15.5243 10.7534 14.9154 10.4208 14.2219C10.0882 13.5284 9.91743 12.7685 9.92142 11.9994Z" fill="#EA1D25"/>
<path d="M19.7322 15.1538H19.6989V14.9561H19.7482L19.8122 15.0949L19.8666 14.9561H19.9146V15.1525H19.8813V15.0041L19.8288 15.1321H19.7898L19.7322 15.0041V15.1538ZM19.5882 15.1532H19.5594V14.99H19.4922V14.9561H19.6605V14.99H19.5882V15.1532Z" fill="#F69E1E"/>
<path d="M20.0786 11.9994C20.0779 12.9543 19.8087 13.8898 19.3018 14.6991C18.7949 15.5083 18.0707 16.1588 17.2118 16.5762C16.3529 16.9936 15.394 17.1612 14.4445 17.0598C13.495 16.9583 12.5931 16.592 11.8418 16.0026C12.902 15.1676 13.5875 13.9459 13.7477 12.6059C13.9079 11.2659 13.5297 9.91709 12.6962 8.8557C12.4472 8.53623 12.1603 8.24825 11.8418 7.9981C12.593 7.40878 13.4947 7.04248 14.444 6.94097C15.3934 6.83947 16.3521 7.00686 17.2109 7.42405C18.0697 7.84123 18.794 8.49141 19.301 9.3004C19.8081 10.1094 20.0775 11.0446 20.0786 11.9994Z" fill="#F69E1E"/>
</g>
<defs>
<clipPath id="clip0_132_4149">
<rect width="23.68" height="16" fill="white" transform="translate(0 4)"/>
</clipPath>
</defs>
</svg>
