<svg width="24" height="24" viewBox="0 0 24 24" fill="none" xmlns="http://www.w3.org/2000/svg">
<g clip-path="url(#clip0_132_4165)">
<path d="M22.0803 4.31934H1.60031C0.893388 4.31934 0.320312 4.89241 0.320312 5.59934V18.3993C0.320312 19.1063 0.893388 19.6793 1.60031 19.6793H22.0803C22.7872 19.6793 23.3603 19.1063 23.3603 18.3993V5.59934C23.3603 4.89241 22.7872 4.31934 22.0803 4.31934Z" fill="#2A2A6C"/>
<path d="M12.8832 14.2796C12.4555 14.2799 12.0315 14.2 11.6333 14.044L11.84 13.084C12.1905 13.273 12.5823 13.3722 12.9805 13.3727H13.0112C13.353 13.3676 13.6979 13.2306 13.6979 12.9362C13.7024 12.748 13.5411 12.5983 13.1027 12.3839C12.6643 12.1695 12.0992 11.822 12.0992 11.182C12.0992 10.3173 12.889 9.70996 14.0192 9.70996C14.3865 9.711 14.7506 9.77776 15.0944 9.90708L14.8928 10.8671C14.6046 10.731 14.2899 10.6602 13.9712 10.6597C13.9008 10.6597 13.8298 10.6629 13.7594 10.67C13.4278 10.7141 13.2794 10.8876 13.2794 11.0399C13.2794 11.2261 13.5174 11.3503 13.8182 11.5084C14.2957 11.7586 14.8902 12.0696 14.887 12.8018L14.9114 12.7634C14.9069 13.685 14.1203 14.2802 12.9101 14.2802L12.8832 14.2796ZM16.064 14.2412H14.8544L16.5779 10.1279C16.6166 10.032 16.6829 9.94986 16.7683 9.89174C16.8538 9.83363 16.9546 9.80221 17.0579 9.80148H18.0179L18.9485 14.2412H17.8835L17.7446 13.5788H16.3008L16.064 14.2412ZM17.2064 11.0008L16.6016 12.6648H17.5565L17.2064 11.0008ZM10.8128 14.2264H9.6608L10.6208 9.78676H11.7728L10.8128 14.2264ZM8.29312 14.2124H7.04L6.1248 10.6648C6.11643 10.5818 6.08667 10.5024 6.03844 10.4343C5.99021 10.3662 5.92514 10.3118 5.8496 10.2764C5.48919 10.1045 5.1086 9.97876 4.7168 9.90196L4.7456 9.77396H6.7008C6.8281 9.77344 6.95145 9.81822 7.04877 9.9003C7.14608 9.98237 7.21103 10.0964 7.232 10.222L7.712 12.7896L8.90752 9.77396H10.1568L8.29312 14.2124Z" fill="white"/>
</g>
<defs>
<clipPath id="clip0_132_4165">
<rect width="23.68" height="16" fill="white" transform="translate(0 4)"/>
</clipPath>
</defs>
</svg>
