<?xml version="1.0" encoding="UTF-8"?>
<svg xmlns="http://www.w3.org/2000/svg" xmlns:xlink="http://www.w3.org/1999/xlink" viewBox="441 355 199 193">
<defs>
    <style>
      .cls-1 {
        fill: url(#linear-gradient-13);
      }

      .cls-2 {
        fill: url(#linear-gradient-2);
      }

      .cls-3 {
        fill: url(#linear-gradient-10);
      }

      .cls-4 {
        fill: url(#linear-gradient-12);
      }

      .cls-5 {
        fill: #787878;
      }

      .cls-6 {
        fill: url(#linear-gradient-4);
      }

      .cls-7 {
        fill: url(#radial-gradient);
      }

      .cls-8 {
        fill: url(#linear-gradient-3);
      }

      .cls-9 {
        fill: url(#linear-gradient-5);
      }

      .cls-10 {
        fill: url(#linear-gradient-8);
      }

      .cls-11 {
        fill: url(#linear-gradient-7);
      }

      .cls-12 {
        fill: url(#linear-gradient-9);
      }

      .cls-13 {
        fill: url(#linear-gradient-11);
      }

      .cls-14 {
        fill: url(#linear-gradient-6);
      }

      .cls-15 {
        fill: #000828;
      }

      .cls-16 {
        fill: url(#linear-gradient);
      }
    </style>
    <linearGradient id="linear-gradient" x1="694.98" y1="559.3" x2="708.7" y2="559.3" gradientUnits="userSpaceOnUse">
      <stop offset="0" stop-color="#e93e82"/>
      <stop offset=".03" stop-color="#e94378"/>
      <stop offset=".14" stop-color="#eb535e"/>
      <stop offset=".26" stop-color="#ec5e4b"/>
      <stop offset=".38" stop-color="#ec653f"/>
      <stop offset=".5" stop-color="#ed683c"/>
      <stop offset="1" stop-color="#e93e3a"/>
    </linearGradient>
    <linearGradient id="linear-gradient-2" x1="609.4" y1="660.68" x2="616.43" y2="660.68" gradientUnits="userSpaceOnUse">
      <stop offset="0" stop-color="#ff6544"/>
      <stop offset=".28" stop-color="#e93e82"/>
      <stop offset=".52" stop-color="#be31b7"/>
      <stop offset=".75" stop-color="#9824ea"/>
      <stop offset="1" stop-color="#6b20f6"/>
    </linearGradient>
    <linearGradient id="linear-gradient-3" x1="575.35" y1="658.65" x2="582.34" y2="658.65" xlink:href="#linear-gradient-2"/>
    <linearGradient id="linear-gradient-4" x1="618.61" y1="660.7" x2="625.72" y2="660.7" gradientTransform="translate(1282.12 37.75) rotate(89.93)" xlink:href="#linear-gradient-2"/>
    <linearGradient id="linear-gradient-5" x1="331.08" y1="685.45" x2="435.44" y2="685.45" xlink:href="#linear-gradient-2"/>
    <linearGradient id="linear-gradient-6" x1="646.64" y1="685.48" x2="750.78" y2="685.48" gradientTransform="translate(1.22 -1.24) rotate(.1)" xlink:href="#linear-gradient-2"/>
    <linearGradient id="linear-gradient-7" x1="523.87" y1="701.03" x2="530.89" y2="701.03" gradientTransform="translate(.81 -.61) rotate(.07)" xlink:href="#linear-gradient-2"/>
    <linearGradient id="linear-gradient-8" x1="514.87" y1="701.04" x2="521.81" y2="701.04" gradientTransform="translate(1218.76 181.86) rotate(89.93)" xlink:href="#linear-gradient-2"/>
    <radialGradient id="radial-gradient" cx="537.76" cy="685.86" fx="537.76" fy="685.86" r="96.22" gradientUnits="userSpaceOnUse">
      <stop offset="0" stop-color="#ff6544"/>
      <stop offset=".28" stop-color="#e93e82"/>
      <stop offset=".52" stop-color="#be31b7"/>
      <stop offset=".75" stop-color="#9824ea"/>
    </radialGradient>
    <linearGradient id="linear-gradient-9" x1="461.39" y1="406.16" x2="578.44" y2="406.16" gradientUnits="userSpaceOnUse">
      <stop offset="0" stop-color="#9824ea"/>
      <stop offset="1" stop-color="#1920ae"/>
    </linearGradient>
    <linearGradient id="linear-gradient-10" x1="502.83" y1="433.21" x2="589.79" y2="346.25" gradientUnits="userSpaceOnUse">
      <stop offset=".38" stop-color="#ff6544"/>
      <stop offset=".52" stop-color="#e93e82"/>
      <stop offset=".69" stop-color="#be31b7"/>
      <stop offset=".86" stop-color="#9824ea"/>
      <stop offset="1" stop-color="#6b20f6"/>
    </linearGradient>
    <linearGradient id="linear-gradient-11" x1="526.17" y1="460.36" x2="526.17" y2="526.24" gradientUnits="userSpaceOnUse">
      <stop offset="0" stop-color="#be31b7"/>
      <stop offset=".68" stop-color="#9824ea"/>
      <stop offset="1" stop-color="#6b20f6"/>
    </linearGradient>
    <linearGradient id="linear-gradient-12" x1="555.4" y1="446.18" x2="568.62" y2="459.41" gradientUnits="userSpaceOnUse">
      <stop offset="0" stop-color="#ff6544"/>
      <stop offset="1" stop-color="#e93e82"/>
    </linearGradient>
    <linearGradient id="linear-gradient-13" x1="514.34" y1="423.65" x2="514.34" y2="527.31" xlink:href="#linear-gradient-12"/>
  </defs>
<g>
    <path class="cls-12" d="M562.09,412.51h-3.5s-68.11-.02-68.11-.02c-10.03.06-19.95,2.11-29.09,6.08,1.26-2.02,2.66-4.12,4.19-6.26,1.91-2.67,3.81-5.11,5.67-7.33,2.06-2.23,5.54-5.42,10.64-7.77,1.8-.82,3.72-1.51,6.11-2.09,8.33-2.05,15.64-1.31,21.31-.87,5.41.42,13.28.87,23.27.87l45.85-.02-5.09,5.44c-3.26,3.74-6.12,7.68-8.57,11.97h-2.69Z"/>
    <path class="cls-3" d="M578.51,395.18h-56.08s-15.77-.91-15.77-.91c-12.07-.87-23.93,1.73-33.72,9.05,7.99-10.43,17.99-18.24,30.31-23.13,7.83-2.86,16.17-5.03,24.63-5.04l90.73-.07-38.06,39.57-24.5,26.08-.21.2s-.07-.09-.08-.23c.01-5.29.94-10.39,2.63-15.4,1.82-5.41,4.29-10.45,7.44-15.21,3.59-5.4,7.75-10.12,12.68-14.9Z"/>
    <path class="cls-13" d="M520,514.94c-4.31,5.08-10.37,9.9-17.19,11.3,3.95-2.35,7.32-5.43,10.34-9.04,5.45-6.49,9.48-13.99,11.87-22.14,1.69-5.76,2.66-11.58,2.68-17.59l.08-17.12c2.94,10.88,11.12,17.35,21.74,20.06l-23.63,27.58-5.89,6.94Z"/>
    <polygon class="cls-4" points="580.66 445.77 555.79 472.24 555.79 445.78 580.66 445.77"/>
    <path class="cls-1" d="M514.75,515.64c-3.79,4.85-8.32,9.19-13.89,11.66v-72.3c.24-2.21.75-4.51,2.36-6.15l24.58-25.2.02,42.48v11.21c-.23,13.98-4.4,27.2-13.07,38.3Z"/>
  </g>
</svg>